<svg width="393" height="102" viewBox="0 0 393 102" fill="none" xmlns="http://www.w3.org/2000/svg">
<rect width="393" height="75" fill="#F7D200"/>
<path d="M153.965 23.2109V28.3086H145.352V52H139.297V28.3086H130.645V23.2109H153.965ZM165.566 35.8477C163.327 35.8477 161.823 36.5768 161.055 38.0352C160.625 38.8555 160.41 40.1185 160.41 41.8242V52H154.805V30.7109H160.117V34.4219C160.977 33.0026 161.725 32.0326 162.363 31.5117C163.405 30.6393 164.759 30.2031 166.426 30.2031C166.53 30.2031 166.615 30.2096 166.68 30.2227C166.758 30.2227 166.921 30.2292 167.168 30.2422V35.9453C166.816 35.9063 166.504 35.8802 166.23 35.8672C165.957 35.8542 165.736 35.8477 165.566 35.8477ZM176.172 30.7109V52H170.527V30.7109H176.172ZM176.172 23.0352V28.1719H170.527V23.0352H176.172ZM199.414 32.9961C201.133 34.832 201.992 37.5273 201.992 41.082C201.992 44.832 201.146 47.6901 199.453 49.6563C197.773 51.6224 195.605 52.6055 192.949 52.6055C191.256 52.6055 189.85 52.1823 188.73 51.3359C188.118 50.8672 187.52 50.1836 186.934 49.2852V60.3789H181.426V30.7109H186.758V33.8555C187.357 32.931 187.995 32.2018 188.672 31.668C189.909 30.7175 191.38 30.2422 193.086 30.2422C195.573 30.2422 197.682 31.1602 199.414 32.9961ZM196.25 41.3555C196.25 39.7148 195.872 38.263 195.117 37C194.375 35.737 193.164 35.1055 191.484 35.1055C189.466 35.1055 188.079 36.0625 187.324 37.9766C186.934 38.9922 186.738 40.2813 186.738 41.8438C186.738 44.3177 187.396 46.056 188.711 47.0586C189.492 47.6445 190.417 47.9375 191.484 47.9375C193.034 47.9375 194.212 47.3385 195.02 46.1406C195.84 44.9427 196.25 43.3477 196.25 41.3555ZM223.789 33.4063C225.586 35.6589 226.484 38.3216 226.484 41.3945C226.484 44.5195 225.586 47.1953 223.789 49.4219C221.992 51.6354 219.264 52.7422 215.605 52.7422C211.947 52.7422 209.219 51.6354 207.422 49.4219C205.625 47.1953 204.727 44.5195 204.727 41.3945C204.727 38.3216 205.625 35.6589 207.422 33.4063C209.219 31.1536 211.947 30.0273 215.605 30.0273C219.264 30.0273 221.992 31.1536 223.789 33.4063ZM215.586 34.7344C213.958 34.7344 212.702 35.3138 211.816 36.4727C210.944 37.6185 210.508 39.2591 210.508 41.3945C210.508 43.53 210.944 45.1771 211.816 46.3359C212.702 47.4948 213.958 48.0742 215.586 48.0742C217.214 48.0742 218.464 47.4948 219.336 46.3359C220.208 45.1771 220.645 43.53 220.645 41.3945C220.645 39.2591 220.208 37.6185 219.336 36.4727C218.464 35.3138 217.214 34.7344 215.586 34.7344ZM245.156 31.6875C246.823 32.7552 247.78 34.5911 248.027 37.1953H242.461C242.383 36.4792 242.181 35.9128 241.855 35.4961C241.243 34.7409 240.202 34.3633 238.73 34.3633C237.52 34.3633 236.654 34.5521 236.133 34.9297C235.625 35.3073 235.371 35.75 235.371 36.2578C235.371 36.8958 235.645 37.3581 236.191 37.6445C236.738 37.944 238.672 38.4583 241.992 39.1875C244.206 39.7083 245.866 40.4961 246.973 41.5508C248.066 42.6185 248.613 43.9531 248.613 45.5547C248.613 47.6641 247.826 49.3893 246.25 50.7305C244.687 52.0586 242.266 52.7227 238.984 52.7227C235.638 52.7227 233.164 52.0195 231.562 50.6133C229.974 49.194 229.18 47.3906 229.18 45.2031H234.824C234.941 46.1927 235.195 46.8958 235.586 47.3125C236.276 48.0547 237.552 48.4258 239.414 48.4258C240.508 48.4258 241.374 48.263 242.012 47.9375C242.663 47.612 242.988 47.1237 242.988 46.4727C242.988 45.8477 242.728 45.3724 242.207 45.0469C241.686 44.7214 239.753 44.1615 236.406 43.3672C233.997 42.7682 232.298 42.0195 231.309 41.1211C230.319 40.2357 229.824 38.9596 229.824 37.293C229.824 35.3268 230.592 33.6406 232.129 32.2344C233.678 30.8151 235.853 30.1055 238.652 30.1055C241.309 30.1055 243.477 30.6328 245.156 31.6875ZM262.5 48.0352V52.1953L259.863 52.293C257.233 52.3841 255.436 51.9284 254.473 50.9258C253.848 50.2878 253.535 49.3047 253.535 47.9766V34.8711H250.566V30.9063H253.535V24.9688H259.043V30.9063H262.5V34.8711H259.043V46.1211C259.043 46.9935 259.154 47.5404 259.375 47.7617C259.596 47.9701 260.273 48.0742 261.406 48.0742C261.576 48.0742 261.751 48.0742 261.934 48.0742C262.129 48.0612 262.318 48.0482 262.5 48.0352Z" fill="#F8FFF3"/>
<path d="M93.391 31.138C92.8001 34.3793 88.2927 34.8906 83.7925 33.8711C82.0768 32.5249 80.073 31.961 78.2506 31.7751L77.8905 26.5063C83.0061 23.9229 93.1256 25.4035 93.4429 30.0429C93.4705 30.4089 93.4521 30.777 93.3882 31.1384L93.391 31.138ZM76.0827 31.7838L75.718 26.4204C66.0099 24.8038 68.4999 35.4795 76.0827 31.7838ZM50.8381 31.2356C50.902 30.8741 50.9204 30.5061 50.8927 30.14C50.5756 25.5007 40.4563 24.0201 35.3406 26.6036L35.7007 31.8724C37.523 32.0583 39.5255 32.6236 41.2428 33.9681C45.7426 34.9878 50.25 34.4765 50.8413 31.235L50.8381 31.2356ZM33.5295 31.8812L33.1654 26.518C23.4604 24.904 25.9488 35.5786 33.5311 31.8795L33.5295 31.8812ZM73.2675 49.165C73.2851 45.8706 68.9495 44.5375 64.3402 44.7079C62.4057 45.7125 60.3321 45.8985 58.5074 45.7455L57.1786 50.8616C61.7307 54.3433 71.9491 54.7563 73.1163 50.2548C73.2111 49.9002 73.2611 49.5352 73.2651 49.1682L73.2675 49.165ZM56.3753 45.3375C49.605 40.3054 45.189 50.3388 55.0283 50.5397L56.3753 45.3375ZM115.188 46.061C114.387 42.8655 109.863 42.654 105.438 43.9519C103.814 45.4067 101.845 46.0957 100.045 46.4029L100.029 51.684C105.297 53.9353 115.305 51.8069 115.315 47.1534C115.319 46.7864 115.278 46.4202 115.191 46.0636L115.188 46.061ZM97.8775 46.5397C90.071 43.342 88.2782 54.1576 97.8616 51.9143L97.8762 46.5413L97.8775 46.5397Z" fill="#F8FFF3"/>
<path d="M342.391 31.138C341.8 34.3793 337.293 34.8906 332.792 33.8711C331.077 32.5249 329.073 31.961 327.251 31.7751L326.891 26.5063C332.006 23.9229 342.126 25.4035 342.443 30.0429C342.471 30.4089 342.452 30.777 342.388 31.1384L342.391 31.138ZM325.083 31.7838L324.718 26.4204C315.01 24.8038 317.5 35.4795 325.083 31.7838ZM299.838 31.2356C299.902 30.8741 299.92 30.5061 299.893 30.14C299.576 25.5007 289.456 24.0201 284.341 26.6036L284.701 31.8724C286.523 32.0583 288.526 32.6236 290.243 33.9681C294.743 34.9878 299.25 34.4765 299.841 31.235L299.838 31.2356ZM282.53 31.8812L282.165 26.518C272.46 24.904 274.949 35.5786 282.531 31.8795L282.53 31.8812ZM322.267 49.165C322.285 45.8706 317.949 44.5375 313.34 44.7079C311.406 45.7125 309.332 45.8985 307.507 45.7455L306.179 50.8616C310.731 54.3433 320.949 54.7563 322.116 50.2548C322.211 49.9002 322.261 49.5352 322.265 49.1682L322.267 49.165ZM305.375 45.3375C298.605 40.3054 294.189 50.3388 304.028 50.5397L305.375 45.3375ZM364.188 46.061C363.387 42.8655 358.863 42.654 354.438 43.9519C352.814 45.4067 350.845 46.0957 349.045 46.4029L349.029 51.684C354.297 53.9353 364.305 51.8069 364.315 47.1534C364.319 46.7864 364.278 46.4202 364.191 46.0636L364.188 46.061ZM346.877 46.5397C339.071 43.342 337.278 54.1576 346.862 51.9143L346.876 46.5413L346.877 46.5397Z" fill="#F8FFF3"/>
</svg>
