<svg width="393" height="74" viewBox="0 0 393 74" fill="none" xmlns="http://www.w3.org/2000/svg">
<g clip-path="url(#clip0_373_241)">
<rect width="393" height="74" fill="white"/>
<rect y="-1" width="393" height="75" fill="#F7D200"/>
<path d="M153.965 22.2109V27.3086H145.352V51H139.297V27.3086H130.645V22.2109H153.965ZM165.566 34.8477C163.327 34.8477 161.823 35.5768 161.055 37.0352C160.625 37.8555 160.41 39.1185 160.41 40.8242V51H154.805V29.7109H160.117V33.4219C160.977 32.0026 161.725 31.0326 162.363 30.5117C163.405 29.6393 164.759 29.2031 166.426 29.2031C166.53 29.2031 166.615 29.2096 166.68 29.2227C166.758 29.2227 166.921 29.2292 167.168 29.2422V34.9453C166.816 34.9062 166.504 34.8802 166.23 34.8672C165.957 34.8542 165.736 34.8477 165.566 34.8477ZM176.172 29.7109V51H170.527V29.7109H176.172ZM176.172 22.0352V27.1719H170.527V22.0352H176.172ZM199.414 31.9961C201.133 33.832 201.992 36.5273 201.992 40.082C201.992 43.832 201.146 46.6901 199.453 48.6562C197.773 50.6224 195.605 51.6055 192.949 51.6055C191.256 51.6055 189.85 51.1823 188.73 50.3359C188.118 49.8672 187.52 49.1836 186.934 48.2852V59.3789H181.426V29.7109H186.758V32.8555C187.357 31.931 187.995 31.2018 188.672 30.668C189.909 29.7174 191.38 29.2422 193.086 29.2422C195.573 29.2422 197.682 30.1602 199.414 31.9961ZM196.25 40.3555C196.25 38.7148 195.872 37.263 195.117 36C194.375 34.737 193.164 34.1055 191.484 34.1055C189.466 34.1055 188.079 35.0625 187.324 36.9766C186.934 37.9922 186.738 39.2812 186.738 40.8438C186.738 43.3177 187.396 45.056 188.711 46.0586C189.492 46.6445 190.417 46.9375 191.484 46.9375C193.034 46.9375 194.212 46.3385 195.02 45.1406C195.84 43.9427 196.25 42.3477 196.25 40.3555ZM223.789 32.4062C225.586 34.6589 226.484 37.3216 226.484 40.3945C226.484 43.5195 225.586 46.1953 223.789 48.4219C221.992 50.6354 219.264 51.7422 215.605 51.7422C211.947 51.7422 209.219 50.6354 207.422 48.4219C205.625 46.1953 204.727 43.5195 204.727 40.3945C204.727 37.3216 205.625 34.6589 207.422 32.4062C209.219 30.1536 211.947 29.0273 215.605 29.0273C219.264 29.0273 221.992 30.1536 223.789 32.4062ZM215.586 33.7344C213.958 33.7344 212.702 34.3138 211.816 35.4727C210.944 36.6185 210.508 38.2591 210.508 40.3945C210.508 42.5299 210.944 44.1771 211.816 45.3359C212.702 46.4948 213.958 47.0742 215.586 47.0742C217.214 47.0742 218.464 46.4948 219.336 45.3359C220.208 44.1771 220.645 42.5299 220.645 40.3945C220.645 38.2591 220.208 36.6185 219.336 35.4727C218.464 34.3138 217.214 33.7344 215.586 33.7344ZM245.156 30.6875C246.823 31.7552 247.78 33.5911 248.027 36.1953H242.461C242.383 35.4792 242.181 34.9128 241.855 34.4961C241.243 33.7409 240.202 33.3633 238.73 33.3633C237.52 33.3633 236.654 33.5521 236.133 33.9297C235.625 34.3073 235.371 34.75 235.371 35.2578C235.371 35.8958 235.645 36.3581 236.191 36.6445C236.738 36.944 238.672 37.4583 241.992 38.1875C244.206 38.7083 245.866 39.4961 246.973 40.5508C248.066 41.6185 248.613 42.9531 248.613 44.5547C248.613 46.6641 247.826 48.3893 246.25 49.7305C244.687 51.0586 242.266 51.7227 238.984 51.7227C235.638 51.7227 233.164 51.0195 231.562 49.6133C229.974 48.194 229.18 46.3906 229.18 44.2031H234.824C234.941 45.1927 235.195 45.8958 235.586 46.3125C236.276 47.0547 237.552 47.4258 239.414 47.4258C240.508 47.4258 241.374 47.263 242.012 46.9375C242.663 46.612 242.988 46.1237 242.988 45.4727C242.988 44.8477 242.728 44.3724 242.207 44.0469C241.686 43.7214 239.753 43.1615 236.406 42.3672C233.997 41.7682 232.298 41.0195 231.309 40.1211C230.319 39.2357 229.824 37.9596 229.824 36.293C229.824 34.3268 230.592 32.6406 232.129 31.2344C233.678 29.8151 235.853 29.1055 238.652 29.1055C241.309 29.1055 243.477 29.6328 245.156 30.6875ZM262.5 47.0352V51.1953L259.863 51.293C257.233 51.3841 255.436 50.9284 254.473 49.9258C253.848 49.2878 253.535 48.3047 253.535 46.9766V33.8711H250.566V29.9062H253.535V23.9688H259.043V29.9062H262.5V33.8711H259.043V45.1211C259.043 45.9935 259.154 46.5404 259.375 46.7617C259.596 46.9701 260.273 47.0742 261.406 47.0742C261.576 47.0742 261.751 47.0742 261.934 47.0742C262.129 47.0612 262.318 47.0482 262.5 47.0352Z" fill="#F8FFF3"/>
<path d="M93.391 30.138C92.8001 33.3794 88.2927 33.8907 83.7925 32.8711C82.0768 31.525 80.073 30.9611 78.2506 30.7752L77.8905 25.5064C83.0061 22.923 93.1256 24.4036 93.4429 29.043C93.4705 29.409 93.4521 29.777 93.3882 30.1385L93.391 30.138ZM76.0827 30.7839L75.718 25.4205C66.0099 23.8039 68.4999 34.4796 76.0827 30.7839ZM50.8381 30.2357C50.902 29.8742 50.9204 29.5061 50.8927 29.1401C50.5756 24.5008 40.4563 23.0201 35.3406 25.6037L35.7007 30.8725C37.523 31.0584 39.5255 31.6237 41.2428 32.9682C45.7426 33.9879 50.25 33.4766 50.8413 30.2351L50.8381 30.2357ZM33.5295 30.8813L33.1654 25.5181C23.4604 23.904 25.9488 34.5787 33.5311 30.8796L33.5295 30.8813ZM73.2675 48.1651C73.2851 44.8707 68.9495 43.5376 64.3402 43.708C62.4057 44.7126 60.3321 44.8986 58.5074 44.7456L57.1786 49.8617C61.7307 53.3434 71.9491 53.7564 73.1163 49.2548C73.2111 48.9003 73.2611 48.5353 73.2651 48.1683L73.2675 48.1651ZM56.3753 44.3376C49.605 39.3054 45.189 49.3389 55.0283 49.5397L56.3753 44.3376ZM115.188 45.061C114.387 41.8656 109.863 41.6541 105.438 42.9519C103.814 44.4067 101.845 45.0957 100.045 45.403L100.029 50.6841C105.297 52.9354 115.305 50.807 115.315 46.1534C115.319 45.7864 115.278 45.4203 115.191 45.0636L115.188 45.061ZM97.8775 45.5397C90.071 42.342 88.2782 53.1577 97.8616 50.9143L97.8762 45.5414L97.8775 45.5397Z" fill="#F8FFF3"/>
<path d="M342.391 30.138C341.8 33.3794 337.293 33.8907 332.792 32.8711C331.077 31.525 329.073 30.9611 327.251 30.7752L326.891 25.5064C332.006 22.923 342.126 24.4036 342.443 29.043C342.471 29.409 342.452 29.777 342.388 30.1385L342.391 30.138ZM325.083 30.7839L324.718 25.4205C315.01 23.8039 317.5 34.4796 325.083 30.7839ZM299.838 30.2357C299.902 29.8742 299.92 29.5061 299.893 29.1401C299.576 24.5008 289.456 23.0201 284.341 25.6037L284.701 30.8725C286.523 31.0584 288.526 31.6237 290.243 32.9682C294.743 33.9879 299.25 33.4766 299.841 30.2351L299.838 30.2357ZM282.53 30.8813L282.165 25.5181C272.46 23.904 274.949 34.5787 282.531 30.8796L282.53 30.8813ZM322.267 48.1651C322.285 44.8707 317.949 43.5376 313.34 43.708C311.406 44.7126 309.332 44.8986 307.507 44.7456L306.179 49.8617C310.731 53.3434 320.949 53.7564 322.116 49.2548C322.211 48.9003 322.261 48.5353 322.265 48.1683L322.267 48.1651ZM305.375 44.3376C298.605 39.3054 294.189 49.3389 304.028 49.5397L305.375 44.3376ZM364.188 45.061C363.387 41.8656 358.863 41.6541 354.438 42.9519C352.814 44.4067 350.845 45.0957 349.045 45.403L349.029 50.6841C354.297 52.9354 364.305 50.807 364.315 46.1534C364.319 45.7864 364.278 45.4203 364.191 45.0636L364.188 45.061ZM346.877 45.5397C339.071 42.342 337.278 53.1577 346.862 50.9143L346.876 45.5414L346.877 45.5397Z" fill="#F8FFF3"/>
</g>
<defs>
<clipPath id="clip0_373_241">
<rect width="393" height="74" fill="white"/>
</clipPath>
</defs>
</svg>
