<svg width="46" height="46" viewBox="0 0 46 46" fill="none" xmlns="http://www.w3.org/2000/svg">
<path fill-rule="evenodd" clip-rule="evenodd" d="M13 10.5C13 7.84784 14.0536 5.3043 15.9289 3.42893C17.8043 1.55357 20.3478 0.5 23 0.5C25.6522 0.5 28.1957 1.55357 30.0711 3.42893C31.9464 5.3043 33 7.84784 33 10.5C33 13.1522 31.9464 15.6957 30.0711 17.5711C28.1957 19.4464 25.6522 20.5 23 20.5C20.3478 20.5 17.8043 19.4464 15.9289 17.5711C14.0536 15.6957 13 13.1522 13 10.5ZM13 25.5C9.68479 25.5 6.50537 26.817 4.16117 29.1612C1.81696 31.5054 0.5 34.6848 0.5 38C0.5 39.9891 1.29018 41.8968 2.6967 43.3033C4.10322 44.7098 6.01088 45.5 8 45.5H38C39.9891 45.5 41.8968 44.7098 43.3033 43.3033C44.7098 41.8968 45.5 39.9891 45.5 38C45.5 34.6848 44.183 31.5054 41.8388 29.1612C39.4946 26.817 36.3152 25.5 33 25.5H13Z" fill="#1E1E1E"/>
</svg>
