<svg width="46" height="46" viewBox="0 0 46 46" fill="none" xmlns="http://www.w3.org/2000/svg">
<path d="M45.5 40.4999L32.615 27.6149C34.9971 23.9947 35.9511 19.6194 35.2925 15.3361C34.6339 11.0528 32.4094 7.16619 29.0497 4.42884C25.6901 1.69148 21.4342 0.298067 17.1062 0.518371C12.7781 0.738675 8.68578 2.55703 5.62144 5.62137C2.55709 8.68572 0.738736 12.7781 0.518432 17.1061C0.298128 21.4342 1.69154 25.69 4.4289 29.0497C7.16625 32.4093 11.0528 34.6338 15.3361 35.2924C19.6194 35.9511 23.9948 34.997 27.615 32.6149L40.5 45.4999L45.5 40.4999ZM5.5 17.9999C5.5 11.1074 11.1075 5.49994 18 5.49994C24.8925 5.49994 30.5 11.1074 30.5 17.9999C30.5 24.8924 24.8925 30.4999 18 30.4999C11.1075 30.4999 5.5 24.8924 5.5 17.9999Z" fill="#1E1E1E"/>
</svg>
